# xmcd
#
# Track frame offsets:
#	150
#	12565
#	26567
#	41439
#	56687
#	69370
#	86885
#	101050
#	119621
#	137030
#	161608
#	188059
#	211471
#	232914
#	252893
#	275221
#	294434
#	308514
#
# Disc length: 4366 seconds
#
# Revision: 1
# Processed by: cddbd v1.4PL0 Copyright (c) Steve Scherf et al.
# Submitted via: CDmax 2.0
#
DISCID=05110c12
DTITLE=ABBA - Лучшие песни
DYEAR=2001
DGENRE=Blues
TTITLE0=People Need Love
TTITLE1=Ring Ring
TTITLE2=I Do, I Do, I Do, I Do, I Do
TTITLE3=S.O.S.
TTITLE4=Waterloo
TTITLE5=Dancing Queen
TTITLE6=Money, Money, Money
TTITLE7=Take A Chance On Me
TTITLE8=Thank You For Te Music
TTITLE9=Chiquitita
TTITLE10=Eagle
TTITLE11=Voulez-Yous
TTITLE12=I Have A dream
TTITLE13=Happy New Year
TTITLE14=The Winner Takes It All
TTITLE15=Fernando
TTITLE16=Hasta Manana
TTITLE17=Super Trouper
EXTD=
EXTT0=
EXTT1=
EXTT2=
EXTT3=
EXTT4=
EXTT5=
EXTT6=
EXTT7=
EXTT8=
EXTT9=
EXTT10=
EXTT11=
EXTT12=
EXTT13=
EXTT14=
EXTT15=
EXTT16=
EXTT17=
PLAYORDER=
